# Blender v2.74 (sub 0) OBJ File: ''
# www.blender.org
mtllib diamond.mtl
o Cone
v -0.002100 -0.455900 0.000000
v -0.002100 0.164100 -0.500000
v 0.473400 0.164100 -0.154500
v 0.291800 0.164100 0.404500
v -0.296000 0.164100 0.404500
v -0.477600 0.164100 -0.154500
v -0.002100 0.288100 -0.000000
v -0.002100 0.288100 -0.362000
v 0.342154 0.288100 -0.111855
v 0.210683 0.288100 0.292858
v -0.214883 0.288100 0.292858
v -0.346354 0.288100 -0.111855
vt 0.000000 1.000000
vt 0.000000 0.000000
vt 0.200000 0.000000
vt 0.200000 1.000000
vt 0.400000 0.000000
vt 0.400000 1.000000
vt 0.600000 0.000000
vt 0.600000 1.000000
vt 0.800000 0.000000
vt 0.800000 1.000000
vt 1.000000 0.000000
vt 1.000000 1.000000
vn 0.492300 -0.546400 -0.677500
vn 0.796500 -0.546400 0.258800
vn 0.000000 -0.546400 0.837500
vn -0.796500 -0.546400 0.258800
vn -0.492300 -0.546400 -0.677500
vn 0.000000 1.000000 0.000000
vn 0.436800 0.669100 -0.601200
vn 0.706800 0.669100 0.229600
vn 0.000000 0.669100 0.743200
vn -0.706800 0.669100 0.229600
vn -0.436800 0.669100 -0.601200
usemtl b0b0b0
s 1
f 1/1/1 2/2/1 3/3/1
f 1/4/2 3/3/2 4/5/2
f 1/6/3 4/5/3 5/7/3
f 1/8/4 5/7/4 6/9/4
f 1/10/5 6/9/5 2/11/5
f 9/4/6 8/1/6 7/2/6
f 10/6/6 9/4/6 7/2/6
f 11/8/6 10/6/6 7/2/6
f 12/10/6 11/8/6 7/2/6
f 8/12/6 12/10/6 7/2/6
f 3/2/7 2/2/7 8/2/7 9/2/7
f 4/2/8 3/2/8 9/2/8 10/2/8
f 5/2/9 4/2/9 10/2/9 11/2/9
f 6/2/10 5/2/10 11/2/10 12/2/10
f 2/2/11 6/2/11 12/2/11 8/2/11
